<mxfile host="app.diagrams.net" modified="2024-04-06T21:18:26.113Z" agent="Mozilla/5.0 (Windows NT 10.0; Win64; x64) AppleWebKit/537.36 (KHTML, like Gecko) Chrome/123.0.0.0 Safari/537.36" etag="LA4vD-rwUY2NBktVLxj6" version="24.2.2" type="device">
  <diagram name="Page-1" id="CugM7RYuPs3OwKg7Z1oD">
    <mxGraphModel dx="1560" dy="867" grid="1" gridSize="10" guides="1" tooltips="1" connect="1" arrows="1" fold="1" page="1" pageScale="1" pageWidth="827" pageHeight="1169" math="0" shadow="0">
      <root>
        <mxCell id="0" />
        <mxCell id="1" parent="0" />
        <mxCell id="DnfhJsPTjdveW10YOCdi-3" value="EUROSTAT&lt;div style=&quot;font-size: 16px;&quot;&gt;DATASOURCE&lt;/div&gt;" style="ellipse;shape=cloud;whiteSpace=wrap;html=1;fillColor=#a20025;strokeColor=#6F0000;fontColor=#ffffff;fontStyle=1;fontSize=16;" parent="1" vertex="1">
          <mxGeometry x="240" y="260" width="240" height="190" as="geometry" />
        </mxCell>
        <mxCell id="FizNEXan-2WPi5A_-d3e-9" style="edgeStyle=orthogonalEdgeStyle;rounded=0;orthogonalLoop=1;jettySize=auto;html=1;fillColor=#fa6800;strokeColor=#C73500;strokeWidth=4;dashed=1;dashPattern=1 1;" parent="1" source="FizNEXan-2WPi5A_-d3e-2" target="FizNEXan-2WPi5A_-d3e-7" edge="1">
          <mxGeometry relative="1" as="geometry" />
        </mxCell>
        <mxCell id="FizNEXan-2WPi5A_-d3e-2" value="Transform" style="rhombus;whiteSpace=wrap;html=1;fillColor=#D825D2;strokeColor=#A50040;fontStyle=1;fontColor=#ffffff;" parent="1" vertex="1">
          <mxGeometry x="320" y="560" width="80" height="80" as="geometry" />
        </mxCell>
        <mxCell id="FizNEXan-2WPi5A_-d3e-8" style="edgeStyle=orthogonalEdgeStyle;rounded=0;orthogonalLoop=1;jettySize=auto;html=1;entryX=0.5;entryY=0;entryDx=0;entryDy=0;strokeWidth=4;dashed=1;dashPattern=1 1;fillColor=#fa6800;strokeColor=#C73500;" parent="1" source="FizNEXan-2WPi5A_-d3e-6" target="FizNEXan-2WPi5A_-d3e-2" edge="1">
          <mxGeometry relative="1" as="geometry" />
        </mxCell>
        <mxCell id="FizNEXan-2WPi5A_-d3e-6" value="demo_r_mwk_05" style="shape=cylinder3;whiteSpace=wrap;html=1;boundedLbl=1;backgroundOutline=1;size=15;fillColor=#0050ef;strokeColor=#001DBC;fontColor=#ffffff;fontStyle=1" parent="1" vertex="1">
          <mxGeometry x="300" y="385" width="110" height="115" as="geometry" />
        </mxCell>
        <mxCell id="FizNEXan-2WPi5A_-d3e-7" value="demo_r_mwk_05&lt;br&gt;-&lt;br&gt;after T1" style="shape=cylinder3;whiteSpace=wrap;html=1;boundedLbl=1;backgroundOutline=1;size=15;fillColor=#0050ef;strokeColor=#001DBC;fontColor=#ffffff;fontStyle=1" parent="1" vertex="1">
          <mxGeometry x="320" y="720" width="110" height="125" as="geometry" />
        </mxCell>
        <mxCell id="FizNEXan-2WPi5A_-d3e-10" value="" style="shape=note;whiteSpace=wrap;html=1;backgroundOutline=1;darkOpacity=0.05;fillColor=#E6E6E6;fontColor=#ffffff;strokeColor=#EBEBEB;" parent="1" vertex="1">
          <mxGeometry x="477" y="570" width="150" height="90" as="geometry" />
        </mxCell>
        <mxCell id="FizNEXan-2WPi5A_-d3e-30" value="" style="edgeStyle=orthogonalEdgeStyle;rounded=0;orthogonalLoop=1;jettySize=auto;html=1;fillColor=#647687;strokeColor=#A8A8A8;strokeWidth=4;dashed=1;dashPattern=1 1;" parent="1" source="FizNEXan-2WPi5A_-d3e-12" target="FizNEXan-2WPi5A_-d3e-2" edge="1">
          <mxGeometry relative="1" as="geometry" />
        </mxCell>
        <mxCell id="FizNEXan-2WPi5A_-d3e-12" value="" style="shape=image;verticalLabelPosition=bottom;labelBackgroundColor=default;verticalAlign=top;aspect=fixed;imageAspect=0;image=data:image/png,iVBORw0KGgoAAAANSUhEUgAAAa0AAAB4CAYAAABB0q0fAAAdKElEQVR4Ae2cX8ttV3XGz+doA34DL3sZvAoUqvFGqjW9stggtJTijVowJAckRyGgBwJpihJOpc0hVIniIWIDqbUGNT2Bltr2Ri8Kgd70G6zyvPA7jjMcc6659l5rv3vt9wls5lpzjjn+POOZY6y195tza5qm6datW9N//Nv/+WMMzAFzwBwwB86aA7fctNys/cBiDpgD5sBeOOCm5aeqs36q2stBsp8u+ubAaTjgpuWm5aZlDpgD5sBuOOCmZbLuhqx+kj3Nk6xxNs7nzIGrpqXftc7ZSfvmQ2QOmAPmgDkgDrhp+U3LDyzmgDlgDuyGA25aJutuyOonbT9pmwPmgJuWm5abljlgDpgDu+GAm5bJuhuy+inbT9nmgDngpuWm5aZlDpgD5sBuOOCmZbLuhqx+yvZTtjlgDrhpuWm5aZkD5oA5sBsO3Oim9eqbP54+8txz0zMv3Z1+/t4HZ5G0N370/vTUC7cn+XZOT5XCRzh97uVvzvr1/L3vXOE6IntOMdoXP8WbA+fPgc2b1jvv/nr6xFdfmlSMKXwqakvIIR0f/cqdq0KoJpM/hzadc2xa8klNS3gtwWhrWXIwkjs3rfM/+FvzxfrNga04sHnTUhGmqcQGdmhAS4rnoTauc58Kvhq04rxOP7Ltc30DzH763sXSHLhsDmzetPQVEU/nsYEdSqxLLp68iZ7j12rn2kwP5ZH3XXZhc34vN7+bNS0V3vw1XrynkS0lV694qinylhLt86YnWzQGfOn5wVsdsvlrO3RJB80UWfmyNDbs9XySTuSwlf3CbsRAsmDD+pJRuiKOeW/2qRe/1vCdMfpGHh/8039e2URGPmS7GfeoB1nyhB6NvVjY5/FyC59zu9/cbta0RAqKjwoaRa1XzEaI1CueKvb6/UwfCj9FDbt3Xn/w6Peini7Jq7ixT75JZyyKxCQ9cb6ntxdj9rWSHfGLIr1WYUaf4qp80twXv3X/KsdzstKRm2zGq8qj4s77JJfnsq6Yo5bvnt9vAXPubl7uNm1aKioUOhVkNRMVkUOJNlIQ1WhkFxu9RpALHHsodLFhYTs2AnTHhiUdLb3ob41VYY6yo34hF3GIepZeL9EHTuQ92qriq+S1t8qjcBbm0qkx3msOP6NtchRzGX3y9c0res75vnO+WdOiGFEsYgM7lDQUpaoYYy82lZ4d5Ctd8llFM39iMZRu5IixZ29kTb7kBhj3YW/OL+2h8Ev2WP+WFH5yVNmUTzk/lW7JZRwyNrrPOOg+55M8ay2/lUVsfb3vQub83Zz8rd60KFpVQTm2cFQFDrJiNxct1vPY01UV17xf97mQVjKjcxRX2W7tGfUr7teeY3FfEqeaVdUciC/nR/dRvpXHGDu6elhFDHTNHmGRG2KW9f3NKYDO9f5yvXrTggQqRjxVq0Hkr3KQWzK2CqJ09JpQZaOnKxbIai9zo3LI90aKai7qcc+h9kZ0Rzv5OuYyr+V7yVZNofKBnEV55uKbGntpUvk++9C7pylG/T15r+2vqDlnl52zzZqWCgwFeEnR6xGuV7R7TajSGeVVBKVbBU2yWtMTea+wHVM4K38qfcINDEf9qnRXjaCSa83Jh9xYPvONV8p/RSTKCk/hqtiIjwcZmodwZo4Y45uX5pCN+ZCdLNfyP87HvMd5X192oXN+Lye/mzQtFRn+FQyRJTawQ8lD0ZOuSofmY/GrZOIchVBFs2pQKoqsMUb9xzaC6AvXNEvsVbGO+oUOjYcUd3zSmLGKDSzK6RpcKrt57d6Dn13lTDGhR9cRZ823Go3wiXHqOmKW8dR6z3d88Hg5Bc65vLxcbtK0TJTLI8oWOaWJqblsod86zUNz4PI44Kblf935JA1DjSm+5fDmnN+qXGQur8g4p87pmhxw03LTOknTEml5s+IrPTcsF7M1i5l13Qw+uWm5aZ2sabmo3Iyi4jw7z1tywE3LTctNyxwwB8yB3XDATctk3Q1Zt3x6s26/HZgD++CAm5ablpuWOWAOmAO74YCblsm6G7L6SXgfT8LOk/O0JQfctNy03LTMAXPAHNgNB9y0TNbdkHXLpzfr9tuBObAPDrhpuWm5aZkD5oA5sBsOuGmZrLshq5+E9/Ek7Dw5T1tywE3LTctNyxwwB8yB3XDATesayPqlL7w46bPl04h1b/e0e//v356e+N0PTc9+9vPTw1984Dx2zpB4fvfr3z4ao9sv/+N06/f+7Oqja/j9vbf+a/qd3/+r6bU3Hj6aY601rqmrZcPz250/N63OgduCeDrAH3/6U9O7P/nV8CHbwg/rfPxQqfmoCY08TLhpPY5dj0tvPXg4PfnkU0c1LjWmD//hi5NGNSc1KV3/63v/O/3Bn//1FJtYzxetralrzpbXx3myBCs3rRM2LRU7HWAd5CVJsuw25I+4LmlacZ+v53NzLO/VqD78yRenn/zL/zzWdNSsmB/Nw5q6Rm1abp4jSzBy0zpR09Kbld6w1viqZEmCLTt2YNy0xnA6lE96gz3069T8dqRG9f0f/vdVw8pfC8Y3scrXJbqq/Z7blicj+G7atFSg9d0/n0xaCrmexKJs/vpM65p75+1fXhEfffmrHAoP6xpzk9AefaQTuertB9+QYcyyfP3Beo6RJBBD72vBiAH6NOY4dR/XpRs7jDE+ybb8Qn6NMfufsZKNnKMsg9/ZX2KuYj3G95y/iKuuoz18Qybnhdi+dufVRzwVJuCS5bPtHPMxcVV78Q//Ncq3LIu/UU7X2X9yglzEKusk1p5M3hPv/+TLrz/6TUuNSff6RBmukc0NLa/rN7I5XezxeP3Nihxs1rREznggaAKR+MyJ9BxYDlaUi8UCndUhuP3C3ce+emNfPCgctGyPewGDX9EH2a0KbJ7TnqgLoFvzrGf9lQ8VNhUOWRf78sMAttcYhXHGIuslJnKo9WofeUOOe41Z51r3YBRz3tLdkmVefJav8v/pj31yEi91H/HJ97I1x5GWP6PzI+cjc4ecRVyIM85VPIx+sYecxrWl12o0c18L8scWrcaGzRFdyHo8j8a1WdOqEpwPZXUgtC/L6YBTCNDL3t4hqGSybumTjljQqwOY51qHUHIqVBrxtSXLusbKrzwnHKKf7JecPrqvYtZ89p+9a40Zw0qvZHJDb2EjWRV5YtZ9pXOtOfwAx57elizzxEgMwj42KeRyTBV3en4cu1ZxJXNONvIcOdH+6IPkevhlPXHv6LV+11LDar1FRT36KlB/tKE/1tAfbcQ1XS/Rlff6/voa2GZNi4PJVweMHGglvTo0FRniga/WmaMwY4sxFofq4Gg9NgP8igewJYONPMpn/EJf9IM1Rq3FJ/Fqj2SyHe7BtVX4yEfPB3w5ZMRf+RPjiLqEJ/7mMWLNHuSJjfktRvCp/Mj2WrJ5XljDq8jhiFXGQfeRO9n2Mfcj52MtHlZ+Cttjc6k3JzWh+9/796uGpK/4Wk1JPtCY+IvD6NdSXXGvry+saXF4ObAkOJOWwztXSOOBR1ceOZCx6FT6sw/SE4uL7vE/FpRciCvd2Sfu0deLUzFGe7qOsVR+oj+O19W08IFYiSUW4Ap79uUx6sk8yrJr3GMvY17pbsnm+ciryOEl3KnsHzI3ej7W4mHlo7Adwbfaqzm9Xan5qGHxp+40perNq/emtVRXyyfPn755bfKm1TqUuWi15DIR4oHPa9xXMpX+7IP2x+Kie+maK5S5QOFHa6zsIouuXlPDr9w80cFYxaw1ipZiQ3bLkZhikco49+xrn3LAH99EPb19h65V/rZ0tWTzfIw38jPLteysOR/tozdzBb/W4CE2GEd1I5/H+P9kxUYV5+MeNSW9hVW/acU9I7qiXl+fvkllzDdpWhA0Fhpd6+k7fj2QD012jvvqwLHGmIsyumUzHkL5EX3Q/lhcdD9iD7msH3/y2NNZ4ZX36x65uYaqGGNzY1+OGxvkJuLE2qEj+EedzLX8wJawEq4aNUduoy5kWZvDBPneKBxG9ICn5KO+PB95lfNPjFVMUaeuwS3mNMvM3YMTmKIz8jf739KJ3AhW6Mj2mR8d9YcVfA3YajroUqPiLwOZi+MSXXGfr6+/YSkHmzQtKYakOhT66IDrgMaCxcGZO7j5wLfIIz3Y03jvtQdX9qJ++RF9kC6t5wMouaiL66hLeyk+rGvM+iVHrLnQEUvGC33ZLwoG64wUI/RlLFp2JY9stoWukbHCK2MlPeCA3xpjMcaX7C/zWWfUl9dG/I4yFbYRV3yIvkf/2Y/vkgfTisOj3EGvbKE7+j16nf2vzsfaPMQ3+V2dC9Z7I1/l6es+5HiTym9TlSx7NFbrLV1xn6/Po2EpD5s1rT0nORabGIfmY4GNayPXVeHSPgqv9Ec9zB9TqKK+1jV2Di0qLb2nmqcYxwZzKtunskODyxxZ0z48yDaYP5SHLd6v6bt1nU9T2ToXblrFv4ihw8kTckxAaz7KzF1LR258PN3mYtGan7OxdH3PRZ+CuteGO5Ir3rQqTo7sH5Vp8a01P6L3mL0j+i1zc5oVuXbTKpoWRSJ/DbRWYVTj0ockaORJOtvc8u2BgpKbaPTrnK+F4bFfmZ1zfPKNB4q1uDcX79o8VI7yw9icD16/eY1oSc7dtIqmtQRAy/qAmQPmgDlwOg64ablpPfbG58N3usNnrI21ObCcA25ablpuWuaAOWAO7IYDblom627I6qfS5U+lxsyYXRoH3LTctNy0zAFzwBzYDQfctEzW3ZD10p4YHY/fgsyB5Rxw03LTctMyB8wBc2A3HHDTMll3Q1Y/lS5/KjVmxuzSOOCm5ablpmUOmAPmwG444Ka1U7L+/L0Ppmdeujt95Lnnplff/PFuCKenPnz/3Mvf3JXfS59YFZ9ypHiX7rW835DMgZoDmzetd9799fSJr740vfGj9x8Vq+fvfWfxIVZhVoGOn5tcECj8e2xa4sRHv3JnOoQHeznI5OfSG/Ne8mE/6wawR1w2b1pqNjSX2MCWgqUChx7tVRN86oXbF134lmK0F3lyt7c3xCX43oTGvAQPy15O07juXG7etPSkyRN1bGBLA5ee+NTqJ9n9HgLxQW9aKuxLebAXeXFdD1Vq0Hvx2X7u90zdpNxt1rTUYOJXefmaRjYCdvXUytN61oMs9lqFI/uX9ajoUFijbHzbw/e4jl3Nsa4Rf1nXGH3TuuxpjPqyPfmFDvyLduJ11KM9Lfksl7HQvfwQthqxn2OMtnvX2pfjquTn/NKeiAd+aa7SNzKXbVa6skzGS3Y018I7+jGnS+v6ZP5Ev0a5I7uHno+RWGJcvnYD3IoDmzUtOayDBdk5LPGwjQbFgWUvunLh07oKF3LSn4tHtbe1T7/F6UNRGvED/ezBhzm/5IOwUkwqUtpX2fvit+6XaxFL3kIzPlFG1/iKvcqm5rQuXfIPbDXGppt1t+7xLdrMsqN+CeNDfMj2dA/W0S/5oXv5LBn8irhW3JEsmLE32xzRBVaf+cYrV9jLx0r3CHe0r/I1nw9sxhiz7753Q7pODmzatHQgKAI6cGoAOqxLA+aw8SStMTYF6aMISBb91QGsigly+Kr9us52KGzYqHRlmXyPb3mv4pG96EMVE/tberXOvowRexllK9rTvPbERgA28o24JafrKIfOuXHEtxG/ZEdyaxRXYsxY5Fgqe9Xeau4QXWCVcVaOYtwj3EFXzCF+Rl3IzXEnx+N7N7JTcWCzpsWB4JDoEMwVhVbQ8ZC2DpXsqLDmT7TJXnzCHr4iy308zMgyoisfbt3zdinZfK859GMPuVyc5Geew77Woh3mGaUbLHK8ksF/ZBizTuSir9g4ZOw12yV+SVZx4fcx/vVwJkZwyFhWuUQ2c2OpLvTE2Cp7spN5kmOKWIGZxqgb/zSHTI4XGY9uUtfFgdWbFgcN0ucxH66RwHWI4uHSdW4o1VzWnQ8y6/jMAeW+VXS0T8VXBV4jeigo0bfsu2QpINhjX4xRclXDw9ZIvJKVnHKQcW9hgX7GuSaD3OjYi0k6Rv2K9sBTcfZyFvfE6zmfen7BFXLZk8VmK8asq5JDhjhHuTPKF3zU2OJOlPG1m9epObB60yIAHSqKd1XgkZsb8yGVfHWYRw5ltU/6ctEaKdRVTNKjwilfiEvX8Z4iE5tIFaP2t2JCR9SLvWpEnkInmRYWef+oXN7Xuo+8qGSOsTenu7KnOe3Lb5hZtuVXtVeyPX2juirdmZuj3GlxKceZ7yvuZBnfu3GdkgObNS0dEh06BaORBrY0uHxItb+aUyFQw9DYssEBj8VevuV9raIS9eIDMWI/P+3LFgWMApB/WEdX9B1Z9EfbrBGH9lVy7Kn0V1ggH0fpxf84f+h11iffhIdiks5Rv7L9jEle792DT8RQc3def/CIS5Vfks/ckZ3MH+0V/zVqfVSX8pvPjXTHfOD7HHe0Xvnaw0Vrlf65PV53E9uSA5s0LR1K/hUMOa/DFwvCkoByAdDeVoGiiOhw8smHnkPIeiwA+FUVC9biGO3Jzr0HP7sqKLKBHAUKe9qTC0++11781Bq64phtU/TZhz2N8a0u6piTbeEcdSy9znhU+I/6FWPUtTBZ6g/ywjnqy7yRXPar8l1y4Ia+Cv85XejIMWVuLuFO5Ay+xTizT5KpfAczj25O18GBTZrWdQRyDjZVFFqF7Bz8sw8uMuaAObB3DrhpHfgP5uqJVx8IwFNqfjJm3aOLhTlgDpgDx3PATevApiXy5a9b3LCOJ6QPtTE0B8yBHgfctI5oWj1gveaDZw6YA+bA+hxw03LTevQVpw/Y+gfMmBpTc2BdDrhpuWm5aZkD5oA5sBsOuGmZrLshq59Y131iNZ7Gc48ccNNy03LTMgfMAXNgNxxw0zJZd0PWPT4V2me/zZgDv+HAtMJ/blpuWm5a5oA5YA6chAMr9KzJTctkPQlZ/bT5m6dNY2EsbioH3LTccNxwzAFzwBzYDQduTNO6/3dvT0888aFHny994cWzTNJbP3g4Pf2xT00ab+qT1J7j/uk//2r6+NN/ND355FPOoRvBamf44S8+mJ797Oen0bp1nTxs1TDN//Gnn53kW++MK8a7X//bpsyNaVqAtDT57Dt0VAJENtmd0wHRegmb0+H1bb420kPPSCMihyOyztU2udojrnN1aW49x3xdPMRuq4apHuqhTnLZZ+7V3HR+WjrctDZ+GhxtWktJSYI9nqbwjTYt5+M0+bg0nOfO/9z6OeAx4uOIjGLpnTc3rTNpWnqqmHsCOQdi3lQfeofopmLiuNdr0HPFfG79HHIxWsN4k9KZ6vndeuA/+6YlIOJvUdXXLiQUuUoGcJAVIMzlUWvo0tgCN8pFm7wiRx3xOr/24lOej361dEa7kocQ2Ku+msQeMhpbMUYfjrmu/K9yID+iX1Em+h39JeYq1mN81t6Y4+iXrqO9HF/1ACKfNf83r/zDVYy6/uGD95u/gWXbMeZj46r2Z+yrGHKcYHIIDysfjpnL/lfciXPY0lyOtadL+8BBcrFGRT2az7hoL3zVXq7BMY+S0R64L53RXuRg9As90R+t93RVssSJPsYcV/QPO71RmGffszzYgAHrZ9205GwGB8cZAVWJZK63D3Ar8lZrFXDIxSRr7mt3Xv2t366OSQ7xEGP0uToQVdzZfqVL+0TGiCG21xjBK/pf6ZX9jKmIHfehCznu5w5AZW/JXIVta3+OAzlwlq/vvP3Lqx+ln/n0n05vfvenj/3ITkwx7oqH6F1jlP7bz999dIbwIeJacedQHq7hc9SRMcf/iGHlKzFpDX0jutincwNG2SYyUbds6J492Mx7mWdkXfaICf3cI8uY42B+VFelXzqrmryUnzoLnGH8yiN+ZvzOumm1QI/BSaZFgBys9gFElegWkJKN8tJbJS76xbX2Zf9YY2zZZb0iRJ4jrhyz5OJfI2q9IsuIn/izdIT82beoBxlhEecrbJCVz614oo41ruXHaM5bPkmHio7GGAO5g2NVzIpB68isEdOcjhxH5pz25zliybnOPJyzvWQdLIVb3JdxRC76JpmYV2RGdeV86D6ed93H84b+6IN8Bresj3ha69ke8hpz/lgb1ZVzq/3VnOYz1thqjS09Wb6K76ybFgnWQY/EioEpKK1Xn4oArYRJp5Jc6dFcJmK8j/7k6wr0LNMiF3LgEOPJe5Bp+c8hlI6oBxtLSce+0TFiW9mHxJX/Ve6jPLGN+nKInGxUflS6cm6QiTrIl2QzJyNWGY9R3mFzyai8ZHtVwY35y7ESV9bD/Ra5ilzADmPOmXyPGOo+xjOqizgVfw9j9BG3xogpezMHmGdsred4kNeYc8PaqC5ijPi0dLbmsZnHjEte576K76ybFo4DMkSEAFqvgmJfNaIrJgK5UeCX2ByRbREZv/CZ+DXmwwjBFAP7qlH+VLHP+VDpOmROdogjFo9REmMz6pmLmT3HjLKXMW/pa/Eo6oj5Ir/kpbW/ZW+NednO8WU/8JP8HcPDNXxGxxLuSJZvHsiB8rJUF3vnuAdm5FZjtSfL4Q9ja1364jlCXmPOH2ujupDr5RudwrBqxqznMeYhr8V7xQd2zO+iaeEsIMYgWolhTx4rHcjEosJcNS6x2SMVuucO3QghenFhR2PL9xE/o55jrzPWo0VAdsFLsWQ9x/rV2r/ETgvjqCPGm3MX5Vr+rDmf7aM7xyG/5gpTSxc6txgjlnP68Q/u5II/qmtUTv6Am/7oRva0N/uJX7G2RZnWeu/c5vyhb1QXflf+oouRM6k9zPXGEd34qTiirl01rYoozGXyxSDjNUBU5GBt7mBWNrW3+kMMAZ6fYKM/usZu5ZPWleA5HcjpqSgnOdqDXNGW9GtfRTjp0lqUj/oOvZbejDO2Kj+wA1Yx3/It60Jea3OYINsbwa2HLfur2LQW8wiHJEtMYMx9KybsMIIb+5lfMmpvxBSd0Yfof0+35EYxB4cRfvds4m+PO+yXrGL9y7/4cnlWRnTht2TR2xqRnTtHykHEO+qDEznHOW9xj3yr9I3qGs23bLZ0Rn/idc9v5DhzOadn3bQUmBIdPxVJIimQzYcAIrLOmOUAn3XGDFyWy3oAXmOOo4pBc0t04FfWJT9ZY4zFSP5kvHp20deTibFW15APfzRWh0l7qzwJv+h39oV4Kp3oq9YqX3tzYEEcEdcqRuTIkfbjOz5rDS4Rp3xgDh2M0pF9xC905/WRe/zBjmK799oPfitPmcvIEyO28Il1jREv5GKcMX7Wl4zkOtqsdBJrjxNzutCR4275K7m5/EQsiIF8s5bj0X3EdYSHo7oUi/TjSxyruEdilE58JLYWZjk25M66aeHkTRhbRFLsIkN1wEZJcgx++FXZP0bvqfZSXOLBPpXtU9k5VY624iENTvpPhdmp7Si2vXFwab7hYW6sEesRGcmLE60m76a18b+IERM2d80TSE667qum0Zqfs7Nkfe8FRQdPT4hzT3VLMDk32VPlqMW31vwIThSxit8j+/cg0yvA5+x/K6+tecXSqmHE2duLDDpaDzFuWmfUtEg6f91EEjnY8fVc11s+ufGGsteCD/FbT2tgu+fx1Dlam4c8UGzJ4+vMrwq0zs9eOXhovnX2cg1THjTvf+X9zBrOdR4Q217v34EzlsbSHDhfDqz6prWGMuswAkbACBgBI7AlAre2VG7dRsAIGAEjYATWRMBNa000rcsIGAEjYAQ2RcBNa1N4rdwIGAEjYATWRMBNa000rcsIGAEjYAQ2RcBNa1N4rdwIGAEjYATWRMBNa000rcsIGAEjYAQ2RcBNa1N4rdwIGAEjYATWRMBNa000rcsIGAEjYAQ2RcBNa1N4rdwIGAEjYATWRMBNa000rcsIGAEjYAQ2RcBNa1N4rdwIGAEjYATWRMBNa000rcsIGAEjYAQ2RcBNa1N4rdwIGAEjYATWRMBNa000rcsIGAEjYAQ2RcBNa1N4rdwIGAEjYATWRMBNa000rcsIGAEjYAQ2RcBNa1N4rdwIGAEjYATWROD/ASyvrPjdIBR0AAAAAElFTkSuQmCC;" parent="1" vertex="1">
          <mxGeometry x="480.5" y="610" width="143" height="40" as="geometry" />
        </mxCell>
        <mxCell id="6hBZDJnu0224maxa6s9u-1" value="FROM LINE&amp;nbsp;&lt;div style=&quot;font-size: 18px;&quot;&gt;LINE 550&lt;/div&gt;&lt;div style=&quot;font-size: 18px;&quot;&gt;TO&amp;nbsp;&lt;/div&gt;&lt;div style=&quot;font-size: 18px;&quot;&gt;LINE 700&lt;/div&gt;&lt;div style=&quot;font-size: 18px;&quot;&gt;OF R CODE&lt;/div&gt;&lt;div style=&quot;&quot;&gt;&lt;span style=&quot;font-size: 21px;&quot;&gt;ONLY&amp;nbsp;&lt;/span&gt;&lt;span style=&quot;font-size: 21px;&quot;&gt;&lt;font color=&quot;#33ffff&quot;&gt;demo_r_mwk_05&lt;/font&gt;&amp;nbsp;DATA SOURCE&lt;/span&gt;&lt;br&gt;&lt;/div&gt;&lt;div style=&quot;&quot;&gt;&lt;span style=&quot;font-size: 21px;&quot;&gt;INVOLVED&lt;/span&gt;&lt;/div&gt;&lt;div style=&quot;&quot;&gt;&lt;span style=&quot;font-size: 21px;&quot;&gt;EXCEPT ONE SIMPLE TRANSFORM BETWEEN LINES 63 AND 69&lt;/span&gt;&lt;span style=&quot;font-size: 21px;&quot;&gt;&lt;br&gt;&lt;/span&gt;&lt;/div&gt;" style="rounded=1;whiteSpace=wrap;html=1;fillColor=#6a00ff;strokeColor=#3700CC;fontColor=#ffffff;fontSize=18;fontStyle=1" vertex="1" parent="1">
          <mxGeometry x="39" y="20" width="751" height="200" as="geometry" />
        </mxCell>
      </root>
    </mxGraphModel>
  </diagram>
</mxfile>
